<svg xmlns="http://www.w3.org/2000/svg" xmlns:xlink="http://www.w3.org/1999/xlink" viewBox="0 0 1922 670.01"><defs><linearGradient id="Degradado_sin_nombre_3" x1="5690.77" y1="-7419.87" x2="7548.08" y2="-7571.68" gradientTransform="matrix(1, 0, 0, -1, -5677, -7216.71)" gradientUnits="userSpaceOnUse"><stop offset="0" stop-color="#505d7d"/><stop offset="0.02" stop-color="#475371"/><stop offset="0.06" stop-color="#3a4560"/><stop offset="0.11" stop-color="#313b55"/><stop offset="0.18" stop-color="#2b364e"/><stop offset="0.37" stop-color="#2a344c"/><stop offset="0.97" stop-color="#272829"/><stop offset="1" stop-color="#272727"/></linearGradient><linearGradient id="Degradado_sin_nombre_3-2" x1="14.17" y1="214.24" x2="1890.12" y2="367.57" gradientTransform="matrix(1, 0, 0, 1, 0, 0)" xlink:href="#Degradado_sin_nombre_3"/><pattern id="Unnamed_Pattern" data-name="Unnamed Pattern" width="1920" height="633.4" patternUnits="userSpaceOnUse" viewBox="0 0 1920 633.4"><rect width="1920" height="633.4" style="fill:none"/><path d="M0,0V561c94.09-42.77,348.41-142.29,625-50,38.91,13,81.68,50.59,165,79,56.39,19.23,184.58,61.29,345,35,45.94-7.53,191.58-33.28,317-146,151.39-136.07,137.26-276.57,257-318,77.92-27,159.59,6.34,211,34V0" style="fill:url(#Degradado_sin_nombre_3)"/></pattern></defs><g id="Capa_2" data-name="Capa 2"><g id="Capa_1-2" data-name="Capa 1"><path d="M1921.5,0V426.5c-2.2,4.55-5.55,11.2-10,19-86.51,151.69-294.3,223.08-452,224-316.61,1.84-433.53-280.38-625-204-76.89,30.67-99.17,92.6-230,131-91.78,26.94-168.11,22.09-197,20C192.22,600.9,45.43,460.17.5,413.5L1,0" style="stroke-miterlimit:10;fill:url(#Degradado_sin_nombre_3-2);stroke:url(#Unnamed_Pattern)"/></g></g></svg>